<?xml version="1.0" standalone="no"?>
<svg viewBox="0 0 200 200" xmlns="http://www.w3.org/2000/svg">
  <path fill="#5B0222" d="M38.6,-56.1C51.9,-51.5,65.9,-44,69.3,-32.8C72.7,-21.5,65.5,-6.6,61,7.1C56.5,20.9,54.7,33.3,47.6,40.9C40.5,48.5,28.2,51.3,15.1,58.2C2,65.2,-11.9,76.4,-20.8,72.9C-29.8,69.4,-33.9,51.1,-37.9,37.7C-41.9,24.3,-45.8,15.7,-49.2,5.8C-52.5,-4.1,-55.4,-15.3,-54.8,-28.5C-54.2,-41.8,-50.3,-57,-40.6,-63.3C-30.9,-69.6,-15.5,-67,-1.4,-64.8C12.6,-62.6,25.3,-60.8,38.6,-56.1Z" transform="translate(100 100)" />
</svg>
