<?xml version="1.0" standalone="no"?>
<svg xmlns:xlink="http://www.w3.org/1999/xlink" id="wave" style="transform:rotate(0deg); transition: 0.3s" viewBox="0 0 1440 490" version="1.1" xmlns="http://www.w3.org/2000/svg"><defs><linearGradient id="sw-gradient-0" x1="0" x2="0" y1="1" y2="0"><stop stop-color="rgba(0, 0, 0, 0.96)" offset="0%"/><stop stop-color="rgba(13.701, 13.451, 12.897, 1)" offset="100%"/></linearGradient></defs><path style="transform:translate(0, 0px); opacity:1" fill="url(#sw-gradient-0)" d="M0,196L40,179.7C80,163,160,131,240,114.3C320,98,400,98,480,147C560,196,640,294,720,351.2C800,408,880,425,960,383.8C1040,343,1120,245,1200,236.8C1280,229,1360,310,1440,351.2C1520,392,1600,392,1680,392C1760,392,1840,392,1920,326.7C2000,261,2080,131,2160,106.2C2240,82,2320,163,2400,196C2480,229,2560,212,2640,245C2720,278,2800,359,2880,359.3C2960,359,3040,278,3120,245C3200,212,3280,229,3360,269.5C3440,310,3520,376,3600,408.3C3680,441,3760,441,3840,416.5C3920,392,4000,343,4080,294C4160,245,4240,196,4320,147C4400,98,4480,49,4560,65.3C4640,82,4720,163,4800,179.7C4880,196,4960,147,5040,114.3C5120,82,5200,65,5280,73.5C5360,82,5440,114,5520,163.3C5600,212,5680,278,5720,310.3L5760,343L5760,490L5720,490C5680,490,5600,490,5520,490C5440,490,5360,490,5280,490C5200,490,5120,490,5040,490C4960,490,4880,490,4800,490C4720,490,4640,490,4560,490C4480,490,4400,490,4320,490C4240,490,4160,490,4080,490C4000,490,3920,490,3840,490C3760,490,3680,490,3600,490C3520,490,3440,490,3360,490C3280,490,3200,490,3120,490C3040,490,2960,490,2880,490C2800,490,2720,490,2640,490C2560,490,2480,490,2400,490C2320,490,2240,490,2160,490C2080,490,2000,490,1920,490C1840,490,1760,490,1680,490C1600,490,1520,490,1440,490C1360,490,1280,490,1200,490C1120,490,1040,490,960,490C880,490,800,490,720,490C640,490,560,490,480,490C400,490,320,490,240,490C160,490,80,490,40,490L0,490Z"/><defs><linearGradient id="sw-gradient-1" x1="0" x2="0" y1="1" y2="0"><stop stop-color="rgba(7.095, 1.814, 0.118, 1)" offset="0%"/><stop stop-color="rgba(101.439, 101.439, 101.439, 1)" offset="100%"/></linearGradient></defs><path style="transform:translate(0, 50px); opacity:0.9" fill="url(#sw-gradient-1)" d="M0,147L40,179.7C80,212,160,278,240,326.7C320,376,400,408,480,416.5C560,425,640,408,720,367.5C800,327,880,261,960,236.8C1040,212,1120,229,1200,204.2C1280,180,1360,114,1440,114.3C1520,114,1600,180,1680,245C1760,310,1840,376,1920,383.8C2000,392,2080,343,2160,269.5C2240,196,2320,98,2400,89.8C2480,82,2560,163,2640,163.3C2720,163,2800,82,2880,57.2C2960,33,3040,65,3120,106.2C3200,147,3280,196,3360,228.7C3440,261,3520,278,3600,294C3680,310,3760,327,3840,310.3C3920,294,4000,245,4080,236.8C4160,229,4240,261,4320,277.7C4400,294,4480,294,4560,318.5C4640,343,4720,392,4800,343C4880,294,4960,147,5040,98C5120,49,5200,98,5280,163.3C5360,229,5440,310,5520,326.7C5600,343,5680,294,5720,269.5L5760,245L5760,490L5720,490C5680,490,5600,490,5520,490C5440,490,5360,490,5280,490C5200,490,5120,490,5040,490C4960,490,4880,490,4800,490C4720,490,4640,490,4560,490C4480,490,4400,490,4320,490C4240,490,4160,490,4080,490C4000,490,3920,490,3840,490C3760,490,3680,490,3600,490C3520,490,3440,490,3360,490C3280,490,3200,490,3120,490C3040,490,2960,490,2880,490C2800,490,2720,490,2640,490C2560,490,2480,490,2400,490C2320,490,2240,490,2160,490C2080,490,2000,490,1920,490C1840,490,1760,490,1680,490C1600,490,1520,490,1440,490C1360,490,1280,490,1200,490C1120,490,1040,490,960,490C880,490,800,490,720,490C640,490,560,490,480,490C400,490,320,490,240,490C160,490,80,490,40,490L0,490Z"/></svg>