<?xml version="1.0" standalone="no"?>
<svg xmlns:xlink="http://www.w3.org/1999/xlink" id="wave" style="transform:rotate(0deg); transition: 0.3s" viewBox="0 0 1440 495" version="1.1" xmlns="http://www.w3.org/2000/svg"><defs><linearGradient id="sw-gradient-0" x1="0" x2="0" y1="1" y2="0"><stop stop-color="rgba(0, 0, 0, 1)" offset="0%"/><stop stop-color="rgba(0, 0, 0, 1)" offset="100%"/></linearGradient></defs><path style="transform:translate(0, 0px); opacity:1" fill="url(#sw-gradient-0)" d="M0,343L26.7,343C53.3,343,107,343,160,310.3C213.3,278,267,212,320,155.2C373.3,98,427,49,480,57.2C533.3,65,587,131,640,196C693.3,261,747,327,800,351.2C853.3,376,907,359,960,343C1013.3,327,1067,310,1120,326.7C1173.3,343,1227,392,1280,400.2C1333.3,408,1387,376,1440,318.5C1493.3,261,1547,180,1600,163.3C1653.3,147,1707,196,1760,212.3C1813.3,229,1867,212,1920,236.8C1973.3,261,2027,327,2080,318.5C2133.3,310,2187,229,2240,220.5C2293.3,212,2347,278,2400,261.3C2453.3,245,2507,147,2560,89.8C2613.3,33,2667,16,2720,65.3C2773.3,114,2827,229,2880,253.2C2933.3,278,2987,212,3040,163.3C3093.3,114,3147,82,3200,122.5C3253.3,163,3307,278,3360,343C3413.3,408,3467,425,3520,400.2C3573.3,376,3627,310,3680,302.2C3733.3,294,3787,343,3813,367.5L3840,392L3840,490L3813.3,490C3786.7,490,3733,490,3680,490C3626.7,490,3573,490,3520,490C3466.7,490,3413,490,3360,490C3306.7,490,3253,490,3200,490C3146.7,490,3093,490,3040,490C2986.7,490,2933,490,2880,490C2826.7,490,2773,490,2720,490C2666.7,490,2613,490,2560,490C2506.7,490,2453,490,2400,490C2346.7,490,2293,490,2240,490C2186.7,490,2133,490,2080,490C2026.7,490,1973,490,1920,490C1866.7,490,1813,490,1760,490C1706.7,490,1653,490,1600,490C1546.7,490,1493,490,1440,490C1386.7,490,1333,490,1280,490C1226.7,490,1173,490,1120,490C1066.7,490,1013,490,960,490C906.7,490,853,490,800,490C746.7,490,693,490,640,490C586.7,490,533,490,480,490C426.7,490,373,490,320,490C266.7,490,213,490,160,490C106.7,490,53,490,27,490L0,490Z"/></svg>