<?xml version="1.0" standalone="no"?>
<svg xmlns:xlink="http://www.w3.org/1999/xlink" id="wave" style="transform:rotate(0deg); transition: 0.3s" viewBox="0 0 1440 490" version="1.1" xmlns="http://www.w3.org/2000/svg"><defs><linearGradient id="sw-gradient-0" x1="0" x2="0" y1="1" y2="0"><stop stop-color="rgba(210.768, 55.65, 5.831, 1)" offset="0%"/><stop stop-color="rgba(90.822, 11, 255, 1)" offset="100%"/></linearGradient></defs><path style="transform:translate(0, 0px); opacity:1" fill="url(#sw-gradient-0)" d="M0,196L26.7,236.8C53.3,278,107,359,160,392C213.3,425,267,408,320,408.3C373.3,408,427,425,480,424.7C533.3,425,587,408,640,359.3C693.3,310,747,229,800,171.5C853.3,114,907,82,960,114.3C1013.3,147,1067,245,1120,310.3C1173.3,376,1227,408,1280,400.2C1333.3,392,1387,343,1440,302.2C1493.3,261,1547,229,1600,187.8C1653.3,147,1707,98,1760,114.3C1813.3,131,1867,212,1920,220.5C1973.3,229,2027,163,2080,114.3C2133.3,65,2187,33,2240,57.2C2293.3,82,2347,163,2400,236.8C2453.3,310,2507,376,2560,367.5C2613.3,359,2667,278,2720,220.5C2773.3,163,2827,131,2880,171.5C2933.3,212,2987,327,3040,326.7C3093.3,327,3147,212,3200,204.2C3253.3,196,3307,294,3360,318.5C3413.3,343,3467,294,3520,253.2C3573.3,212,3627,180,3680,138.8C3733.3,98,3787,49,3813,24.5L3840,0L3840,490L3813.3,490C3786.7,490,3733,490,3680,490C3626.7,490,3573,490,3520,490C3466.7,490,3413,490,3360,490C3306.7,490,3253,490,3200,490C3146.7,490,3093,490,3040,490C2986.7,490,2933,490,2880,490C2826.7,490,2773,490,2720,490C2666.7,490,2613,490,2560,490C2506.7,490,2453,490,2400,490C2346.7,490,2293,490,2240,490C2186.7,490,2133,490,2080,490C2026.7,490,1973,490,1920,490C1866.7,490,1813,490,1760,490C1706.7,490,1653,490,1600,490C1546.7,490,1493,490,1440,490C1386.7,490,1333,490,1280,490C1226.7,490,1173,490,1120,490C1066.7,490,1013,490,960,490C906.7,490,853,490,800,490C746.7,490,693,490,640,490C586.7,490,533,490,480,490C426.7,490,373,490,320,490C266.7,490,213,490,160,490C106.7,490,53,490,27,490L0,490Z"/><defs><linearGradient id="sw-gradient-1" x1="0" x2="0" y1="1" y2="0"><stop stop-color="rgba(243, 106, 62, 1)" offset="0%"/><stop stop-color="rgba(255, 179, 11, 1)" offset="100%"/></linearGradient></defs><path style="transform:translate(0, 50px); opacity:0.9" fill="url(#sw-gradient-1)" d="M0,441L26.7,375.7C53.3,310,107,180,160,155.2C213.3,131,267,212,320,261.3C373.3,310,427,327,480,318.5C533.3,310,587,278,640,294C693.3,310,747,376,800,408.3C853.3,441,907,441,960,367.5C1013.3,294,1067,147,1120,81.7C1173.3,16,1227,33,1280,57.2C1333.3,82,1387,114,1440,106.2C1493.3,98,1547,49,1600,98C1653.3,147,1707,294,1760,359.3C1813.3,425,1867,408,1920,383.8C1973.3,359,2027,327,2080,326.7C2133.3,327,2187,359,2240,375.7C2293.3,392,2347,392,2400,343C2453.3,294,2507,196,2560,187.8C2613.3,180,2667,261,2720,269.5C2773.3,278,2827,212,2880,179.7C2933.3,147,2987,147,3040,155.2C3093.3,163,3147,180,3200,228.7C3253.3,278,3307,359,3360,375.7C3413.3,392,3467,343,3520,326.7C3573.3,310,3627,327,3680,334.8C3733.3,343,3787,343,3813,343L3840,343L3840,490L3813.3,490C3786.7,490,3733,490,3680,490C3626.7,490,3573,490,3520,490C3466.7,490,3413,490,3360,490C3306.7,490,3253,490,3200,490C3146.7,490,3093,490,3040,490C2986.7,490,2933,490,2880,490C2826.7,490,2773,490,2720,490C2666.7,490,2613,490,2560,490C2506.7,490,2453,490,2400,490C2346.7,490,2293,490,2240,490C2186.7,490,2133,490,2080,490C2026.7,490,1973,490,1920,490C1866.7,490,1813,490,1760,490C1706.7,490,1653,490,1600,490C1546.7,490,1493,490,1440,490C1386.7,490,1333,490,1280,490C1226.7,490,1173,490,1120,490C1066.7,490,1013,490,960,490C906.7,490,853,490,800,490C746.7,490,693,490,640,490C586.7,490,533,490,480,490C426.7,490,373,490,320,490C266.7,490,213,490,160,490C106.7,490,53,490,27,490L0,490Z"/></svg>